<svg xmlns="http://www.w3.org/2000/svg" viewBox="0 0 24 24" width="24" height="24" fill="#1da1f2"><path d="M24 4.557a9.93 9.93 0 0 1-2.828.775 4.932 4.932 0 0 0 2.165-2.724c-.951.564-2.005.974-3.127 1.195A4.92 4.92 0 0 0 16.616 3c-2.73 0-4.942 2.21-4.942 4.932 0 .386.045.763.127 1.124C7.728 8.89 4.1 6.89 1.671 3.905c-.423.722-.666 1.561-.666 2.475 0 1.708.87 3.216 2.188 4.099a4.904 4.904 0 0 1-2.237-.616c-.054 2.281 1.581 4.415 3.949 4.89-.386.104-.793.16-1.213.16-.297 0-.583-.028-.862-.08.584 1.823 2.28 3.15 4.29 3.187A9.868 9.868 0 0 1 0 21.543a13.94 13.94 0 0 0 7.548 2.209c9.057 0 14.009-7.496 14.009-13.986 0-.213-.005-.425-.014-.636A9.936 9.936 0 0 0 24 4.557z"/></svg> 