<svg xmlns="http://www.w3.org/2000/svg" viewBox="0 0 24 24" width="24" height="24" fill="#e60023"><path d="M12 2.04C6.477 2.04 2 6.517 2 12.04c0 4.418 2.865 8.166 6.839 9.489-.094-.807-.179-2.048.037-2.93.195-.803 1.252-5.115 1.252-5.115s-.319-.638-.319-1.58c0-1.48.858-2.584 1.927-2.584.909 0 1.349.682 1.349 1.5 0 .915-.583 2.285-.885 3.56-.252 1.065.535 1.933 1.584 1.933 1.901 0 3.364-2.006 3.364-4.899 0-2.56-1.841-4.352-4.471-4.352-3.048 0-4.84 2.287-4.84 4.652 0 .924.355 1.918.8 2.457.089.108.102.202.075.31-.082.338-.267 1.065-.303 1.213-.048.195-.156.237-.362.143-1.349-.627-2.192-2.594-2.594-4.176 0-3.404 2.477-6.53 7.137-6.53 3.74 0 6.654 2.667 6.654 6.23 0 3.719-2.345 6.71-5.6 6.71-1.092 0-2.12-.567-2.47-1.236l-.672 2.56c-.193.75-.572 1.687-.85 2.26.64.197 1.314.304 2.02.304 5.523 0 10-4.477 10-10S17.523 2.04 12 2.04z"/></svg> 